# xmcd
#
# Track frame offsets:
#	150
#	15085
#	33860
#	47857
#	60965
#	71562
#	95370
#	109507
#	124587
#	142085
#	157922
#	172430
#	187937
#	203357
#
# Disc length: 2877 seconds
#
# Revision: 0
# Processed by: cddbd v1.5.1PL2 Copyright (c) Steve Scherf et al.
# Submitted via: dBpowerAMP V4.0
#
DISCID=ac0b3b0e
DTITLE=Dolly Parton - Love Songs
DYEAR=2006
DGENRE=Country
TTITLE0=But You Know I Love You
TTITLE1=Islands In The Stream (with Kenny Rogers)
TTITLE2=I Will Always Love You
TTITLE3=Here You Come Again
TTITLE4=Love Is Like A Butterfly
TTITLE5=You Are
TTITLE6=I Really Got The Feeling
TTITLE7=You're The Only One
TTITLE8=Real Love (with Kenny Rogers)
TTITLE9=Heartbreaker
TTITLE10=We Used To
TTITLE11=Think About Love
TTITLE12=Old Flames Can't Hold A Candle To You
TTITLE13=Please Don't Stop Loving Me (with Porter Wagoner)
EXTD=
EXTT0=
EXTT1=
EXTT2=
EXTT3=
EXTT4=
EXTT5=
EXTT6=
EXTT7=
EXTT8=
EXTT9=
EXTT10=
EXTT11=
EXTT12=
EXTT13=
PLAYORDER=
